<svg xmlns="http://www.w3.org/2000/svg" viewBox="0 0 1280 640">
  <defs>
    <linearGradient id="grad1" x1="0%" y1="0%" x2="100%" y2="100%">
      <stop offset="0%" style="stop-color:#6366f1;stop-opacity:1" />
      <stop offset="33%" style="stop-color:#a855f7;stop-opacity:1" />
      <stop offset="66%" style="stop-color:#ec4899;stop-opacity:1" />
      <stop offset="100%" style="stop-color:#06b6d4;stop-opacity:1" />
    </linearGradient>
    <linearGradient id="grad2" x1="0%" y1="0%" x2="100%" y2="0%">
      <stop offset="0%" style="stop-color:#1e1b4b;stop-opacity:1" />
      <stop offset="100%" style="stop-color:#312e81;stop-opacity:1" />
    </linearGradient>
    <linearGradient id="textGrad" x1="0%" y1="0%" x2="100%" y2="0%">
      <stop offset="0%" style="stop-color:#6366f1;stop-opacity:1" />
      <stop offset="50%" style="stop-color:#ec4899;stop-opacity:1" />
      <stop offset="100%" style="stop-color:#06b6d4;stop-opacity:1" />
    </linearGradient>
    <filter id="glow">
      <feGaussianBlur stdDeviation="4" result="coloredBlur"/>
      <feMerge>
        <feMergeNode in="coloredBlur"/>
        <feMergeNode in="SourceGraphic"/>
      </feMerge>
    </filter>
    <filter id="softGlow">
      <feGaussianBlur stdDeviation="2" result="coloredBlur"/>
      <feMerge>
        <feMergeNode in="coloredBlur"/>
        <feMergeNode in="SourceGraphic"/>
      </feMerge>
    </filter>
    <filter id="shadow">
      <feDropShadow dx="0" dy="4" stdDeviation="8" flood-color="#000" flood-opacity="0.3"/>
    </filter>
  </defs>
  
  <rect width="1280" height="640" fill="#020617"/>
  
  <g opacity="0.08">
    <line x1="0" y1="0" x2="0" y2="640" stroke="#6366f1" stroke-width="1"/>
    <line x1="40" y1="0" x2="40" y2="640" stroke="#6366f1" stroke-width="1"/>
    <line x1="80" y1="0" x2="80" y2="640" stroke="#6366f1" stroke-width="1"/>
    <line x1="120" y1="0" x2="120" y2="640" stroke="#6366f1" stroke-width="1"/>
    <line x1="160" y1="0" x2="160" y2="640" stroke="#6366f1" stroke-width="1"/>
    <line x1="200" y1="0" x2="200" y2="640" stroke="#6366f1" stroke-width="1"/>
    <line x1="240" y1="0" x2="240" y2="640" stroke="#6366f1" stroke-width="1"/>
    <line x1="280" y1="0" x2="280" y2="640" stroke="#6366f1" stroke-width="1"/>
    <line x1="320" y1="0" x2="320" y2="640" stroke="#6366f1" stroke-width="1"/>
    <line x1="360" y1="0" x2="360" y2="640" stroke="#6366f1" stroke-width="1"/>
    <line x1="400" y1="0" x2="400" y2="640" stroke="#6366f1" stroke-width="1"/>
    <line x1="440" y1="0" x2="440" y2="640" stroke="#6366f1" stroke-width="1"/>
    <line x1="480" y1="0" x2="480" y2="640" stroke="#6366f1" stroke-width="1"/>
    <line x1="520" y1="0" x2="520" y2="640" stroke="#6366f1" stroke-width="1"/>
    <line x1="560" y1="0" x2="560" y2="640" stroke="#6366f1" stroke-width="1"/>
    <line x1="600" y1="0" x2="600" y2="640" stroke="#6366f1" stroke-width="1"/>
    <line x1="640" y1="0" x2="640" y2="640" stroke="#6366f1" stroke-width="1"/>
    <line x1="680" y1="0" x2="680" y2="640" stroke="#6366f1" stroke-width="1"/>
    <line x1="720" y1="0" x2="720" y2="640" stroke="#6366f1" stroke-width="1"/>
    <line x1="760" y1="0" x2="760" y2="640" stroke="#6366f1" stroke-width="1"/>
    <line x1="800" y1="0" x2="800" y2="640" stroke="#6366f1" stroke-width="1"/>
    <line x1="840" y1="0" x2="840" y2="640" stroke="#6366f1" stroke-width="1"/>
    <line x1="880" y1="0" x2="880" y2="640" stroke="#6366f1" stroke-width="1"/>
    <line x1="920" y1="0" x2="920" y2="640" stroke="#6366f1" stroke-width="1"/>
    <line x1="960" y1="0" x2="960" y2="640" stroke="#6366f1" stroke-width="1"/>
    <line x1="1000" y1="0" x2="1000" y2="640" stroke="#6366f1" stroke-width="1"/>
    <line x1="1040" y1="0" x2="1040" y2="640" stroke="#6366f1" stroke-width="1"/>
    <line x1="1080" y1="0" x2="1080" y2="640" stroke="#6366f1" stroke-width="1"/>
    <line x1="1120" y1="0" x2="1120" y2="640" stroke="#6366f1" stroke-width="1"/>
    <line x1="1160" y1="0" x2="1160" y2="640" stroke="#6366f1" stroke-width="1"/>
    <line x1="1200" y1="0" x2="1200" y2="640" stroke="#6366f1" stroke-width="1"/>
    <line x1="1240" y1="0" x2="1240" y2="640" stroke="#6366f1" stroke-width="1"/>
    <line x1="1280" y1="0" x2="1280" y2="640" stroke="#6366f1" stroke-width="1"/>
    <line x1="0" y1="0" x2="1280" y2="0" stroke="#6366f1" stroke-width="1"/>
    <line x1="0" y1="40" x2="1280" y2="40" stroke="#6366f1" stroke-width="1"/>
    <line x1="0" y1="80" x2="1280" y2="80" stroke="#6366f1" stroke-width="1"/>
    <line x1="0" y1="120" x2="1280" y2="120" stroke="#6366f1" stroke-width="1"/>
    <line x1="0" y1="160" x2="1280" y2="160" stroke="#6366f1" stroke-width="1"/>
    <line x1="0" y1="200" x2="1280" y2="200" stroke="#6366f1" stroke-width="1"/>
    <line x1="0" y1="240" x2="1280" y2="240" stroke="#6366f1" stroke-width="1"/>
    <line x1="0" y1="280" x2="1280" y2="280" stroke="#6366f1" stroke-width="1"/>
    <line x1="0" y1="320" x2="1280" y2="320" stroke="#6366f1" stroke-width="1"/>
    <line x1="0" y1="360" x2="1280" y2="360" stroke="#6366f1" stroke-width="1"/>
    <line x1="0" y1="400" x2="1280" y2="400" stroke="#6366f1" stroke-width="1"/>
    <line x1="0" y1="440" x2="1280" y2="440" stroke="#6366f1" stroke-width="1"/>
    <line x1="0" y1="480" x2="1280" y2="480" stroke="#6366f1" stroke-width="1"/>
    <line x1="0" y1="520" x2="1280" y2="520" stroke="#6366f1" stroke-width="1"/>
    <line x1="0" y1="560" x2="1280" y2="560" stroke="#6366f1" stroke-width="1"/>
    <line x1="0" y1="600" x2="1280" y2="600" stroke="#6366f1" stroke-width="1"/>
    <line x1="0" y1="640" x2="1280" y2="640" stroke="#6366f1" stroke-width="1"/>
  </g>
  
  <ellipse cx="1150" cy="80" rx="350" ry="350" fill="#6366f1" opacity="0.25" filter="url(#glow)"/>
  <ellipse cx="150" cy="560" rx="300" ry="300" fill="#ec4899" opacity="0.2" filter="url(#glow)"/>
  <ellipse cx="700" cy="350" rx="250" ry="250" fill="#a855f7" opacity="0.15" filter="url(#glow)"/>
  <ellipse cx="400" cy="200" rx="150" ry="150" fill="#06b6d4" opacity="0.1" filter="url(#glow)"/>
  
  <g filter="url(#shadow)">
    <rect x="70" y="190" width="90" height="90" rx="20" fill="url(#grad1)" filter="url(#glow)"/>
    <text x="115" y="255" font-family="Arial, sans-serif" font-size="52" font-weight="900" fill="white" text-anchor="middle">Q</text>
  </g>
  
  <text x="180" y="260" font-family="Arial, sans-serif" font-size="60" font-weight="800" fill="white" letter-spacing="-1">Qwen</text>
  <text x="395" y="260" font-family="Arial, sans-serif" font-size="60" font-weight="800" fill="url(#textGrad)" letter-spacing="-1">Image</text>
  
  <text x="70" y="320" font-family="Arial, sans-serif" font-size="26" font-weight="600" fill="#94a3b8" letter-spacing="-0.5">OpenAI-Compatible AI Image Generation Server</text>
  
  <g transform="translate(70, 360)">
    <rect width="180" height="38" rx="19" fill="rgba(255,255,255,0.08)" stroke="rgba(255,255,255,0.15)" stroke-width="1"/>
    <circle cx="20" cy="19" r="5" fill="#10b981"/>
    <text x="35" y="24" font-family="Arial, sans-serif" font-size="14" fill="#94a3b8" font-weight="500">OpenAI Compatible</text>
  </g>
  
  <g transform="translate(270, 360)">
    <rect width="140" height="38" rx="19" fill="rgba(255,255,255,0.08)" stroke="rgba(255,255,255,0.15)" stroke-width="1"/>
    <circle cx="20" cy="19" r="5" fill="#10b981"/>
    <text x="35" y="24" font-family="Arial, sans-serif" font-size="14" fill="#94a3b8" font-weight="500">Self-Hosted</text>
  </g>
  
  <g transform="translate(430, 360)">
    <rect width="160" height="38" rx="19" fill="rgba(255,255,255,0.08)" stroke="rgba(255,255,255,0.15)" stroke-width="1"/>
    <circle cx="20" cy="19" r="5" fill="#10b981"/>
    <text x="35" y="24" font-family="Arial, sans-serif" font-size="14" fill="#94a3b8" font-weight="500">GPU Accelerated</text>
  </g>
  
  <g transform="translate(70, 440)" filter="url(#shadow)">
    <rect width="200" height="52" rx="12" fill="url(#grad1)" filter="url(#softGlow)"/>
    <text x="100" y="32" font-family="Arial, sans-serif" font-size="17" font-weight="700" fill="white" text-anchor="middle">Get Started →</text>
  </g>
  
  <g transform="translate(290, 440)" filter="url(#shadow)">
    <rect width="170" height="52" rx="12" fill="transparent" stroke="rgba(255,255,255,0.25)" stroke-width="2"/>
    <text x="85" y="32" font-family="Arial, sans-serif" font-size="17" font-weight="600" fill="white" text-anchor="middle">View on GitHub</text>
  </g>
  
  <g transform="translate(720, 130)" filter="url(#shadow)">
    <rect width="490" height="370" rx="20" fill="rgba(255,255,255,0.04)" stroke="rgba(255,255,255,0.08)" stroke-width="1"/>
    
    <circle cx="24" cy="24" r="7" fill="#ef4444"/>
    <circle cx="46" cy="24" r="7" fill="#f59e0b"/>
    <circle cx="68" cy="24" r="7" fill="#10b981"/>
    
    <rect x="20" y="50" width="450" height="145" rx="12" fill="rgba(0,0,0,0.5)" stroke="rgba(255,255,255,0.05)" stroke-width="1"/>
    
    <text x="35" y="82" font-family="'JetBrains Mono', monospace" font-size="13" fill="#64748b" font-weight="400"># Quick Start with OpenAI SDK</text>
    <text x="35" y="108" font-family="'JetBrains Mono', monospace" font-size="13" fill="#818cf8" font-weight="500">from</text>
    <text x="72" y="108" font-family="'JetBrains Mono', monospace" font-size="13" fill="#e2e8f0" font-weight="400">openai</text>
    <text x="132" y="108" font-family="'JetBrains Mono', monospace" font-size="13" fill="#818cf8" font-weight="500">import</text>
    <text x="188" y="108" font-family="'JetBrains Mono', monospace" font-size="13" fill="#e2e8f0" font-weight="400">OpenAI</text>
    
    <text x="35" y="134" font-family="'JetBrains Mono', monospace" font-size="13" fill="#e2e8f0" font-weight="400">client =</text>
    <text x="110" y="134" font-family="'JetBrains Mono', monospace" font-size="13" fill="#f472b6" font-weight="500">OpenAI</text>
    <text x="170" y="134" font-family="'JetBrains Mono', monospace" font-size="13" fill="#e2e8f0" font-weight="400">(</text>
    
    <text x="50" y="160" font-family="'JetBrains Mono', monospace" font-size="13" fill="#22d3ee" font-weight="400">base_url</text>
    <text x="130" y="160" font-family="'JetBrains Mono', monospace" font-size="13" fill="#e2e8f0" font-weight="400">=</text>
    <text x="148" y="160" font-family="'JetBrains Mono', monospace" font-size="13" fill="#10b981" font-weight="400">"http://localhost:8000/v1"</text>
    
    <text x="50" y="186" font-family="'JetBrains Mono', monospace" font-size="13" fill="#22d3ee" font-weight="400">api_key</text>
    <text x="115" y="186" font-family="'JetBrains Mono', monospace" font-size="13" fill="#e2e8f0" font-weight="400">=</text>
    <text x="133" y="186" font-family="'JetBrains Mono', monospace" font-size="13" fill="#10b981" font-weight="400">"local-qwen"</text>
    
    <text x="35" y="186" font-family="'JetBrains Mono', monospace" font-size="13" fill="#e2e8f0" font-weight="400">)</text>
    
    <rect x="20" y="210" width="450" height="140" rx="12" fill="rgba(99,102,241,0.08)" stroke="rgba(99,102,241,0.2)" stroke-width="1"/>
    
    <text x="35" y="242" font-family="'JetBrains Mono', monospace" font-size="12" fill="#64748b" font-weight="400"># Generate stunning images</text>
    <text x="35" y="268" font-family="'JetBrains Mono', monospace" font-size="13" fill="#e2e8f0" font-weight="400">response = client.</text>
    <text x="180" y="268" font-family="'JetBrains Mono', monospace" font-size="13" fill="#f472b6" font-weight="500">images.generate</text>
    <text x="318" y="268" font-family="'JetBrains Mono', monospace" font-size="13" fill="#e2e8f0" font-weight="400">(</text>
    
    <text x="50" y="294" font-family="'JetBrains Mono', monospace" font-size="13" fill="#22d3ee" font-weight="400">prompt</text>
    <text x="105" y="294" font-family="'JetBrains Mono', monospace" font-size="13" fill="#e2e8f0" font-weight="400">=</text>
    <text x="123" y="294" font-family="'JetBrains Mono', monospace" font-size="13" fill="#10b981" font-weight="400">"A cyberpunk city"</text>
    
    <text x="50" y="320" font-family="'JetBrains Mono', monospace" font-size="13" fill="#22d3ee" font-weight="400">size</text>
    <text x="85" y="320" font-family="'JetBrains Mono', monospace" font-size="13" fill="#e2e8f0" font-weight="400">=</text>
    <text x="103" y="320" font-family="'JetBrains Mono', monospace" font-size="13" fill="#10b981" font-weight="400">"1024x1024"</text>
    
    <text x="35" y="346" font-family="'JetBrains Mono', monospace" font-size="13" fill="#e2e8f0" font-weight="400">)</text>
  </g>
  
  <g transform="translate(1050, 540)" filter="url(#shadow)">
    <rect width="180" height="70" rx="14" fill="rgba(255,255,255,0.04)" stroke="rgba(255,255,255,0.08)" stroke-width="1"/>
    <text x="90" y="25" font-family="Arial, sans-serif" font-size="12" fill="#64748b" text-anchor="middle" font-weight="500">Made possible by</text>
    <text x="90" y="47" font-family="Arial, sans-serif" font-size="15" font-weight="700" fill="white" text-anchor="middle">🤗 Hugging Face</text>
    <text x="90" y="64" font-family="Arial, sans-serif" font-size="11" fill="#64748b" text-anchor="middle">Qwen • PyTorch • FastAPI</text>
  </g>
  
  <g transform="translate(70, 540)">
    <text font-family="Arial, sans-serif" font-size="13" fill="#64748b" font-weight="500">
      <tspan x="0" y="0">Self-hosted • Private • Production-ready</tspan>
    </text>
  </g>
</svg>
